# xmcd CD database file
#
# Track frame offsets:
#	150
#	41808
#	74383
#	96706
#	122884
#	160157
#	186434
#	219359
#
# Disc length: 3216 seconds
#
# Revision: 0
# Processed by: cddbd v1.5.2PL0 Copyright (c) Steve Scherf et al.
# Submitted via: CDex 1.70beta2
#
DISCID=7b0c8e08
DTITLE=Thilo Seevers Ensemble - Dancing Lights
DYEAR=2016
DGENRE=Jazz
TTITLE0=Quintessence
TTITLE1=Dancing Lights
TTITLE2=Hyperactive Mango
TTITLE3=All the Things You Are
TTITLE4=Fighting The Fear
TTITLE5=Trust
TTITLE6=Maximum 4 Minutes
TTITLE7=Mas Que Nada
EXTD=YEAR: 2016
EXTT0=
EXTT1=
EXTT2=
EXTT3=
EXTT4=
EXTT5=
EXTT6=
EXTT7=
PLAYORDER=
